<?xml version="1.0" encoding="UTF-8"?>
<svg version="1.1" xmlns="http://www.w3.org/2000/svg" width="1327" height="822">
<path d="M0 0 C1.27961609 -0.00029205 2.55923218 -0.00058411 3.87762451 -0.00088501 C7.34167853 -0.00145214 10.80559026 0.01019672 14.2696116 0.02426291 C17.90639261 0.03687866 21.5431779 0.03794922 25.17997742 0.04031372 C32.04673154 0.04649695 38.91342097 0.0628644 45.78014678 0.0830127 C53.60616687 0.10547077 61.43219026 0.11638989 69.25823462 0.12640357 C85.33845387 0.14723393 101.41860829 0.18234758 117.4987793 0.22705078 C117.56738035 30.98778146 117.62039225 61.74849445 117.65197529 92.50928347 C117.65572691 96.14998793 117.65960992 99.79069225 117.66357422 103.43139648 C117.66436115 104.15612259 117.66514808 104.8808487 117.66595886 105.6275362 C117.67897352 117.32560359 117.70260537 129.02362625 117.73023769 140.72166721 C117.75840203 152.74621812 117.77497873 164.77074578 117.78104478 176.79532832 C117.78477336 183.54038586 117.7936572 190.28535057 117.81596947 197.03037453 C117.8364868 203.39230449 117.84258254 209.75409272 117.83810234 216.11605263 C117.83892077 218.43822502 117.84479476 220.76040267 117.85639572 223.08254623 C118.05449641 264.81928513 106.05953863 298.33145861 77.1237793 328.91455078 C67.42045652 338.20496621 56.3581288 345.06173844 44.4987793 351.22705078 C43.58870117 351.70916016 42.67862305 352.19126953 41.7409668 352.68798828 C30.43698722 358.25138889 17.69867347 361.25798772 5.4987793 364.22705078 C6.57772461 364.43458984 7.65666992 364.64212891 8.76831055 364.85595703 C32.47212706 369.63361551 52.89585604 378.74097614 71.4987793 394.22705078 C72.39338867 394.96826172 73.28799805 395.70947266 74.2097168 396.47314453 C99.52425513 418.32153838 114.79202902 451.1511999 117.4987793 484.22705078 C117.64363598 488.22575876 117.65579505 492.22134943 117.65991211 496.22241211 C117.66487701 497.39128967 117.66984192 498.56016724 117.67495728 499.76446533 C117.68950079 503.61267702 117.69636972 507.46084742 117.7019043 511.30908203 C117.70464494 512.64624238 117.70750171 513.9834025 117.71047211 515.32056236 C117.72412422 521.61247407 117.73379959 527.90437295 117.737674 534.19629842 C117.7421363 541.39882571 117.75960825 548.60116149 117.78867459 555.80363065 C117.81049075 561.40917763 117.82038891 567.01467156 117.82171512 572.62026042 C117.82274992 575.94976724 117.82987996 579.27895193 117.84653473 582.60843849 C117.93300592 601.23208333 117.7512866 620.02918129 111.4362793 637.78955078 C111.14100342 638.64468262 110.84572754 639.49981445 110.54150391 640.38085938 C103.9640941 658.63111561 93.77785731 674.16685053 80.4987793 688.22705078 C79.39469727 689.44521484 79.39469727 689.44521484 78.26831055 690.68798828 C55.49224482 714.87563598 22.97203953 726.28199072 -9.5012207 728.22705078 C-13.69669783 728.34838887 -17.88747653 728.35447137 -22.08447266 728.34057617 C-23.88588479 728.34075697 -23.88588479 728.34075697 -25.72368908 728.34094143 C-29.56231306 728.3402026 -33.4008868 728.33262189 -37.23950195 728.32470703 C-39.6289467 728.32323442 -42.01839178 728.32221568 -44.40783691 728.32165527 C-53.20980314 728.31643942 -62.01176243 728.30247818 -70.8137207 728.28955078 C-100.3590332 728.25861328 -100.3590332 728.25861328 -130.5012207 728.22705078 C-130.5012207 684.66705078 -130.5012207 641.10705078 -130.5012207 596.22705078 C-91.8912207 596.22705078 -53.2812207 596.22705078 -13.5012207 596.22705078 C-13.5012207 442.77705078 -13.5012207 289.32705078 -13.5012207 131.22705078 C-52.1112207 131.22705078 -90.7212207 131.22705078 -130.5012207 131.22705078 C-130.5012207 96.01342142 -117.18601605 64.98113045 -93.5012207 39.22705078 C-92.58083008 38.2003125 -92.58083008 38.2003125 -91.6418457 37.15283203 C-81.97774232 26.89070245 -69.89542375 19.67041709 -57.5012207 13.22705078 C-56.59114258 12.74494141 -55.68106445 12.26283203 -54.7434082 11.76611328 C-48.91524043 8.89770469 -42.81942265 6.94937163 -36.6262207 5.03955078 C-35.82410156 4.78923096 -35.02198242 4.53891113 -34.19555664 4.28100586 C-22.91320042 0.93812737 -11.7264383 -0.07156593 0 0 Z " fill="#951B1F" transform="translate(1170.501220703125,51.77294921875)"/>
<path d="M0 0 C43.23 0 86.46 0 131 0 C131.08052313 70.86406807 131.08052313 70.86406807 131.1026001 92.79608154 C131.10338943 93.57826792 131.10417877 94.3604543 131.10499202 95.1663433 C131.13150267 121.50812958 131.15250105 147.84991727 131.16937256 174.19171143 C131.16992479 175.05170966 131.17047702 175.91170789 131.17104598 176.79776668 C131.1830189 195.4899249 131.19409944 214.18208354 131.20426132 232.87424283 C131.20925046 242.0414875 131.21443671 251.20873206 131.21972656 260.37597656 C131.2202496 261.28820511 131.22077263 262.20043366 131.22131152 263.14030549 C131.23834283 292.68363369 131.26837753 322.22693119 131.30518888 351.77024081 C131.34296302 382.14155638 131.36755192 412.51285497 131.37565996 442.88419364 C131.3768125 447.17848479 131.37811505 451.47277588 131.37950897 455.76706696 C131.37991351 457.03477641 131.37991351 457.03477641 131.38032622 458.32809615 C131.38504458 471.90717334 131.40357379 485.4861979 131.42732814 499.06525366 C131.4509392 512.73214143 131.45985642 526.39897725 131.45400551 540.06588468 C131.4509739 548.17571311 131.45897769 556.28535076 131.48319017 564.39514458 C131.50007371 570.46766679 131.49578187 576.53998728 131.48359558 582.61252847 C131.48191472 585.05701868 131.48690823 587.50152532 131.49953273 589.9459835 C131.66303248 623.58007807 123.43960344 655.08677373 101 681 C100.56719727 681.50821289 100.13439453 682.01642578 99.68847656 682.54003906 C78.34373034 707.47082738 49.18264209 722.18527402 17 727 C11.39 727.33 5.78 727.66 0 728 C0 487.76 0 247.52 0 0 Z " fill="#961B1F" transform="translate(632,52)"/>
<path d="M0 0 C43.23 0 86.46 0 131 0 C131.06039235 70.41840353 131.06039235 70.41840353 131.07695007 92.21186829 C131.07754207 92.98911387 131.07813408 93.76635946 131.07874402 94.56715795 C131.09862617 120.74144075 131.11437531 146.91572434 131.12702942 173.0900116 C131.12744359 173.94450894 131.12785776 174.79900628 131.12828448 175.67939748 C131.13726408 194.25179106 131.1455745 212.82418489 131.15319599 231.39657908 C131.15693786 240.50502738 131.16082754 249.61347562 131.16479492 258.72192383 C131.1651872 259.62830376 131.16557948 260.5346837 131.16598364 261.46852969 C131.17875815 290.8248333 131.20128496 320.18111954 131.22889166 349.53741264 C131.25721935 379.71532868 131.27566327 409.89323511 131.28174497 440.07116423 C131.28260938 444.33766692 131.28358629 448.60416958 131.28463173 452.87067223 C131.284834 453.71034668 131.28503627 454.55002114 131.28524467 455.41514027 C131.28878406 468.90885959 131.30268266 482.40254913 131.3204961 495.89625632 C131.33820022 509.47574594 131.34489335 523.05520615 131.34050413 536.63470689 C131.33822965 544.69361192 131.34424039 552.75240899 131.36239263 560.81129444 C131.3750476 566.84413034 131.37184041 572.87685194 131.36269668 578.90969857 C131.36143525 581.33936398 131.36518732 583.76903867 131.37464955 586.19868598 C131.43896555 603.74291132 130.76593895 620.98647348 124.8125 637.6875 C124.35967651 638.99182983 124.35967651 638.99182983 123.89770508 640.32250977 C117.34262198 658.64347131 107.43844071 673.9560143 94 688 C93.26652344 688.80824219 92.53304687 689.61648438 91.77734375 690.44921875 C67.5375893 716.22672056 34.2436553 725.98566734 0 728 C0 487.76 0 247.52 0 0 Z " fill="#951B1F" transform="translate(829,52)"/>
<path d="M0 0 C1.88984619 0.00534004 1.88984619 0.00534004 3.81787109 0.01078796 C4.77773926 0.01536514 5.73760742 0.01994232 6.7265625 0.0246582 C6.77794193 57.51653417 6.82570061 115.00841246 6.85359192 172.50030518 C6.85400609 173.35184499 6.85442026 174.20338479 6.85484698 175.08072884 C6.8638267 193.58908808 6.8721371 212.09744756 6.87975849 230.60580741 C6.88350034 239.68292439 6.88739003 248.76004131 6.89135742 257.8371582 C6.8917497 258.74041769 6.89214198 259.64367718 6.89254614 260.57430818 C6.90531938 289.82661842 6.92784524 319.07891123 6.95545416 348.33121092 C6.98378542 378.40361787 7.00222659 408.47601517 7.00830747 438.54843524 C7.00917187 442.80056258 7.01014878 447.0526899 7.01119423 451.3048172 C7.01149763 452.5600783 7.01149763 452.5600783 7.01180717 453.8406982 C7.01534579 467.28586876 7.02924232 480.73100942 7.0470586 494.1761678 C7.06476784 507.70862603 7.07145458 521.24105474 7.06706663 534.77352414 C7.06479311 542.80333586 7.0707942 550.8330392 7.08895513 558.86283126 C7.10161946 564.87578659 7.09839794 570.88862735 7.08925918 576.90159348 C7.08799872 579.32185549 7.09174223 581.74212684 7.10121205 584.16237065 C7.25411856 625.68109871 -3.35539348 660.72172715 -32.8984375 691.0246582 C-54.9387195 712.93764193 -85.2444873 726.01425258 -116.2265625 727.5949707 C-117.00467285 727.63759033 -117.7827832 727.68020996 -118.58447266 727.72412109 C-120.48062138 727.82752091 -122.3770077 727.92654857 -124.2734375 728.0246582 C-124.34194626 669.97487997 -124.40562411 611.92509764 -124.44281006 553.87528992 C-124.44336229 553.01542974 -124.44391452 552.15556956 -124.44448348 551.26965302 C-124.45645654 532.58026275 -124.46753707 513.89087205 -124.47769882 495.20148071 C-124.48268794 486.0355248 -124.48787419 476.86956902 -124.49316406 467.70361328 C-124.4936871 466.79151549 -124.49421013 465.87941771 -124.49474902 464.93968059 C-124.51177875 435.40334216 -124.54181227 405.86703445 -124.57862638 376.33071461 C-124.61640496 345.96527164 -124.64099044 315.59984564 -124.64909746 285.23437956 C-124.65024999 280.94040916 -124.65155254 276.64643882 -124.65294647 272.35246849 C-124.65321616 271.50739628 -124.65348586 270.66232407 -124.65376372 269.79164361 C-124.65848113 256.21648323 -124.67700775 242.64137552 -124.70076564 229.06623657 C-124.72438306 215.40157192 -124.73329234 201.73695922 -124.72744301 188.0722749 C-124.7244126 179.96487846 -124.73240437 171.85767295 -124.75662767 163.75031117 C-124.77352286 157.67782281 -124.76921319 151.605536 -124.75703308 145.53302862 C-124.75535342 143.08986651 -124.76033628 140.64668791 -124.77297023 138.20355789 C-124.96145914 99.47597805 -114.05814296 67.40704785 -87.2734375 39.0246582 C-86.60054688 38.28731445 -85.92765625 37.5499707 -85.234375 36.7902832 C-63.86909633 14.22470798 -31.08976145 -0.11396871 0 0 Z " fill="#951B1F" transform="translate(560.2734375,51.975341796875)"/>
<path d="M0 0 C1.88725548 0.00555153 1.88725548 0.00555153 3.81263733 0.01121521 C4.77028488 0.01597366 5.72793243 0.02073212 6.71459961 0.02563477 C6.7488492 57.16439536 6.78068875 114.30315697 6.79928589 171.44192505 C6.799562 172.28810202 6.79983812 173.134279 6.8001226 174.00609769 C6.80610894 192.39746019 6.81164923 210.78882279 6.81673027 229.18018555 C6.81922486 238.19979495 6.82181798 247.21940432 6.82446289 256.23901367 C6.82472441 257.13655531 6.82498593 258.03409695 6.82525537 258.95883682 C6.83377236 288.03111423 6.84879072 317.10338384 6.86719405 346.17565653 C6.88607734 376.0605363 6.8983747 405.94541175 6.90242959 435.83029738 C6.90300587 440.05495702 6.90365714 444.27961665 6.9043541 448.50427628 C6.90455636 449.75144074 6.90455636 449.75144074 6.90476272 451.02380044 C6.90712271 464.38753291 6.91638951 477.75125203 6.92826368 491.11497906 C6.9400638 504.56226354 6.94452916 518.00953482 6.94160236 531.45682429 C6.94008556 539.43815367 6.94409768 547.41943462 6.9561947 555.40075522 C6.96462651 561.37406534 6.96249575 567.3473241 6.9563974 573.32063903 C6.95555595 575.72740496 6.95806169 578.13417505 6.96436597 580.54093288 C7.00498916 597.01529119 7.0217024 613.73557786 2.46459961 629.71313477 C2.24771484 630.4972876 2.03083008 631.28144043 1.80737305 632.08935547 C-7.98980476 666.41083432 -30.1888039 693.93386193 -61.03540039 711.77563477 C-72.60480062 718.19725409 -85.00812622 722.55201135 -97.91040039 725.40063477 C-98.60045166 725.55636963 -99.29050293 725.71210449 -100.00146484 725.87255859 C-105.34593621 726.93998645 -110.67712424 727.27674206 -116.10717773 727.57104492 C-117.28856575 727.63767082 -117.28856575 727.63767082 -118.49382019 727.7056427 C-120.42423941 727.81423507 -122.35480616 727.92019942 -124.28540039 728.02563477 C-124.35390548 669.86640522 -124.41758382 611.70717158 -124.45477295 553.5479126 C-124.45532518 552.68650463 -124.45587741 551.82509665 -124.45644637 550.93758541 C-124.46841928 532.21479399 -124.47949983 513.49200215 -124.48966171 494.76920967 C-124.49465085 485.58694372 -124.4998371 476.40467789 -124.50512695 467.22241211 C-124.50564999 466.30868872 -124.50617303 465.39496533 -124.50671191 464.45355335 C-124.52374327 434.86172337 -124.55377801 405.26992404 -124.59058927 375.67811261 C-124.62836326 345.25697878 -124.65295227 314.83586191 -124.66106035 284.41470503 C-124.66221289 280.11338658 -124.66351544 275.81206819 -124.66490936 271.51074982 C-124.66517905 270.66422703 -124.66544875 269.81770425 -124.66572661 268.94552926 C-124.670445 255.34413611 -124.6889743 241.74279551 -124.71272853 228.14142376 C-124.73633938 214.45213186 -124.74525686 200.76289182 -124.7394059 187.07358029 C-124.73637425 178.95042127 -124.74437843 170.82745273 -124.76859056 162.70432827 C-124.78547372 156.62188272 -124.78118246 150.53963858 -124.76899597 144.45717409 C-124.76731507 142.00864624 -124.77230893 139.56010198 -124.78493312 137.11160609 C-124.93992759 105.17379602 -117.70769872 75.30182442 -97.28540039 50.02563477 C-96.62217773 49.19636475 -96.62217773 49.19636475 -95.94555664 48.3503418 C-89.41179945 40.23847861 -82.67197947 33.28209579 -74.28540039 27.02563477 C-73.44879883 26.36305664 -72.61219727 25.70047852 -71.75024414 25.01782227 C-55.44501098 12.47533522 -36.05861792 4.61967783 -15.84790039 1.08813477 C-15.18798096 0.97163574 -14.52806152 0.85513672 -13.84814453 0.73510742 C-9.2217614 0.04146113 -4.67624732 -0.01785281 0 0 Z " fill="#961B1F" transform="translate(167.285400390625,51.974365234375)"/>
<path d="M0 0 C43.23 0 86.46 0 131 0 C131.1209091 61.2561339 131.1209091 61.2561339 131.14648438 86.97070312 C131.15235718 92.84578476 131.1584184 98.72086615 131.16479492 104.59594727 C131.16558617 105.33220048 131.16637741 106.06845369 131.16719264 106.82701761 C131.18020819 118.68281452 131.20384162 130.53856737 131.23145839 142.39433824 C131.25960342 154.5793413 131.2761954 166.76432144 131.28226548 178.94935566 C131.28636315 186.45628939 131.29926188 193.9630986 131.3237494 201.46999396 C131.34161853 207.24535229 131.34334284 213.02063245 131.33932304 218.79601288 C131.34014284 221.15127639 131.3460356 223.50654498 131.35761642 225.86178017 C131.49245546 254.7199485 126.068556 283.06239097 109 307 C108.28328125 308.01320313 107.5665625 309.02640625 106.828125 310.0703125 C96.96207328 323.62866869 85.13753448 334.99070872 71 344 C69.33710938 345.06154297 69.33710938 345.06154297 67.640625 346.14453125 C53.11388645 354.89739331 37.63498759 360.01390764 21 363 C19.96230469 363.19851563 18.92460937 363.39703125 17.85546875 363.6015625 C11.93370206 364.21353839 5.95330456 364 0 364 C0 243.88 0 123.76 0 0 Z " fill="#951B1F" transform="translate(239,52)"/>
</svg>
